<?xml version="1.0" standalone="no"?>
<!DOCTYPE svg PUBLIC "-//W3C//DTD SVG 20010904//EN"
 "http://www.w3.org/TR/2001/REC-SVG-20010904/DTD/svg10.dtd">
<svg version="1.0" xmlns="http://www.w3.org/2000/svg"
 width="256.000000pt" height="256.000000pt" viewBox="0 0 256.000000 256.000000"
 preserveAspectRatio="xMidYMid meet">
<metadata>
Created by potrace 1.11, written by Peter Selinger 2001-2013
</metadata>
<g transform="translate(0.000000,256.000000) scale(0.100000,-0.100000)"
fill="#000000" stroke="none">
<path d="M385 2291 c-22 -10 -54 -34 -72 -52 -66 -70 -63 -21 -63 -961 0 -810
1 -855 19 -893 10 -22 34 -54 52 -72 69 -65 34 -63 964 -63 800 0 846 1 887
19 54 23 114 88 128 140 7 27 9 310 8 894 l-3 855 -30 43 c-17 24 -50 57 -74
74 l-43 30 -866 2 c-828 3 -869 2 -907 -16z m1577 -384 l66 -112 -91 -91
c-147 -146 -199 -202 -289 -314 -166 -208 -260 -372 -377 -665 -40 -99 -76
-183 -79 -187 -4 -4 -36 29 -72 73 -36 44 -78 97 -95 117 -72 88 -218 226
-447 421 l-26 23 70 122 c39 66 73 124 77 129 4 4 34 -16 67 -44 94 -82 202
-179 267 -240 l61 -56 57 96 c71 119 148 228 247 345 86 102 474 496 488 496
5 0 39 -51 76 -113z"/>
</g>
</svg>
